# xmcd
#
# Track frame offsets: 
#        182
#        21307
#        42617
#        69240
#        86827
#        107580
#        126500
#        149102
#        165747
#        182617
#        206615
#        224702
#        244085
#        259112
#        279502
#        297630
#
# Disc length: 4254 seconds
#
# Revision: 0
# Processed by: cddbd v1.5.2PL0 Copyright (c) Steve Scherf et al.
# Submitted via: ExactAudioCopy v0.95b4
#
DISCID=0b109c10
DTITLE=Slaughterhouse Seven and Co - Slaughterhouse Seven and Co - Just A 
DTITLE=Closer Walk
DYEAR=1998
DGENRE=Pop;Blues
TTITLE0=I can't give you anything but love
TTITLE1=When Sunny gets Blue
TTITLE2=Burgundy Street Blues
TTITLE3=Satin Doll
TTITLE4=Georgia
TTITLE5=Ain't she sweet
TTITLE6=Tin Roof Blues
TTITLE7=Shine
TTITLE8=Savoy Blues
TTITLE9=Misty
TTITLE10=Just a closer walk with thee
TTITLE11=Careless Love Blues
TTITLE12=Saints go marching in
TTITLE13=Ain't misbehaving
TTITLE14=St James Infirmary Blues
TTITLE15=Everybody loves my Baby
EXTD=
EXTT0=
EXTT1=
EXTT2=
EXTT3=
EXTT4=
EXTT5=
EXTT6=
EXTT7=
EXTT8=
EXTT9=
EXTT10=
EXTT11=
EXTT12=
EXTT13=
EXTT14=
EXTT15=
PLAYORDER=
